<?xml version="1.0" encoding="UTF-8"?>
<!DOCTYPE svg PUBLIC "-//W3C//DTD SVG 1.1//EN" "http://www.w3.org/Graphics/SVG/1.1/DTD/svg11.dtd">
<svg xmlns="http://www.w3.org/2000/svg" version="1.1" width="2200px" height="923px" style="shape-rendering:geometricPrecision; text-rendering:geometricPrecision; image-rendering:optimizeQuality; fill-rule:evenodd; clip-rule:evenodd" xmlns:xlink="http://www.w3.org/1999/xlink">
<g><path style="opacity:1" fill="#f6f6f7" d="M -0.5,-0.5 C 56.8333,-0.5 114.167,-0.5 171.5,-0.5C 75.282,102.314 21.1154,224.314 9,365.5C 0.598845,517.645 46.2655,650.645 146,764.5C 248.699,872.48 374.865,924.813 524.5,921.5C 524.5,921.833 524.5,922.167 524.5,922.5C 349.5,922.5 174.5,922.5 -0.5,922.5C -0.5,614.833 -0.5,307.167 -0.5,-0.5 Z"/></g>
<g><path style="opacity:1" fill="#5271fe" d="M 171.5,-0.5 C 730.167,-0.5 1288.83,-0.5 1847.5,-0.5C 1867.59,100.316 1907.76,191.982 1968,274.5C 2003.62,320.454 2039.62,366.121 2076,411.5C 2108.84,453.806 2137.17,499.139 2161,547.5C 2178.93,585.944 2189.93,626.278 2194,668.5C 2198.34,720.495 2188.34,769.495 2164,815.5C 2134.83,863.866 2093,896.033 2038.5,912C 2022.22,916.388 2005.88,919.888 1989.5,922.5C 1969.17,922.5 1948.83,922.5 1928.5,922.5C 1877.58,916.586 1828.91,902.419 1782.5,880C 1757.23,868.034 1732.57,855.034 1708.5,841C 1657.67,809.749 1606.67,778.749 1555.5,748C 1505.85,719.342 1453.19,698.342 1397.5,685C 1337.54,673.817 1277.54,673.817 1217.5,685C 1154.25,697.307 1093.25,716.64 1034.5,743C 970.493,771.893 906.827,801.56 843.5,832C 791.741,855.477 738.741,875.81 684.5,893C 632.356,909.235 579.023,918.735 524.5,921.5C 374.865,924.813 248.699,872.48 146,764.5C 46.2655,650.645 0.598845,517.645 9,365.5C 21.1154,224.314 75.282,102.314 171.5,-0.5 Z"/></g>
<g><path style="opacity:1" fill="#f6f6f7" d="M 1847.5,-0.5 C 1964.83,-0.5 2082.17,-0.5 2199.5,-0.5C 2199.5,307.167 2199.5,614.833 2199.5,922.5C 2129.5,922.5 2059.5,922.5 1989.5,922.5C 2005.88,919.888 2022.22,916.388 2038.5,912C 2093,896.033 2134.83,863.866 2164,815.5C 2188.34,769.495 2198.34,720.495 2194,668.5C 2189.93,626.278 2178.93,585.944 2161,547.5C 2137.17,499.139 2108.84,453.806 2076,411.5C 2039.62,366.121 2003.62,320.454 1968,274.5C 1907.76,191.982 1867.59,100.316 1847.5,-0.5 Z"/></g>
<g><path style="opacity:1" fill="#f6f6f7" d="M 1928.5,922.5 C 1460.5,922.5 992.5,922.5 524.5,922.5C 524.5,922.167 524.5,921.833 524.5,921.5C 579.023,918.735 632.356,909.235 684.5,893C 738.741,875.81 791.741,855.477 843.5,832C 906.827,801.56 970.493,771.893 1034.5,743C 1093.25,716.64 1154.25,697.307 1217.5,685C 1277.54,673.817 1337.54,673.817 1397.5,685C 1453.19,698.342 1505.85,719.342 1555.5,748C 1606.67,778.749 1657.67,809.749 1708.5,841C 1732.57,855.034 1757.23,868.034 1782.5,880C 1828.91,902.419 1877.58,916.586 1928.5,922.5 Z"/></g>
</svg>
